<svg width="38" height="37" viewBox="0 0 38 37" fill="none" xmlns="http://www.w3.org/2000/svg">
<mask id="mask0_1_11907" style="mask-type:luminance" maskUnits="userSpaceOnUse" x="0" y="0" width="38" height="37">
<path d="M0.96875 0.765625H37.1146V36.6667H0.96875V0.765625Z" fill="white"/>
</mask>
<g mask="url(#mask0_1_11907)">
<path d="M36.5521 18.8333C36.5521 28.5052 28.7135 36.3438 19.0417 36.3438C9.36979 36.3438 1.53125 28.5052 1.53125 18.8333C1.53125 9.16667 9.36979 1.32812 19.0417 1.32812C28.7135 1.32812 36.5521 9.16667 36.5521 18.8333ZM17.0156 28.1042L30.0052 15.1146C30.4479 14.6771 30.4479 13.9583 30.0052 13.5208L28.4115 11.9219C27.9688 11.4792 27.2552 11.4792 26.8125 11.9219L16.2188 22.5156L11.2708 17.5677C10.8281 17.1302 10.1146 17.1302 9.67188 17.5677L8.07812 19.1667C7.63542 19.6094 7.63542 20.3229 8.07812 20.7656L15.4167 28.1042C15.8594 28.5469 16.5729 28.5469 17.0156 28.1042Z" fill="#050038"/>
</g>
</svg>
